<svg width="48" height="45" viewBox="0 0 48 45" fill="none" xmlns="http://www.w3.org/2000/svg">
<path d="M28.5527 20.3186V20.3274L28.5605 20.3323C28.5578 20.3278 28.5554 20.3231 28.5527 20.3186ZM25.4893 22.1516V22.1565L25.4932 22.1594C25.4917 22.1569 25.4907 22.1541 25.4893 22.1516ZM22.2021 22.1594V22.1545C22.2007 22.157 22.1987 22.159 22.1973 22.1614L22.2021 22.1594Z" fill="#4CAF4F" stroke="#4CAF4F" stroke-width="1.33333"/>
<path d="M6.08887 25.6418C6.11492 25.5949 6.14154 25.5478 6.16797 25.5002L5.77637 25.2942C5.75886 25.3257 5.71032 25.4135 5.63672 25.5461C5.79251 25.6241 5.95579 25.6439 6.08887 25.6418ZM18.8086 27.2522V27.2453C18.8067 27.2489 18.8047 27.2525 18.8027 27.2561L18.8086 27.2522ZM20.499 30.0725L20.4941 30.0754C20.4974 30.0754 20.5006 30.0754 20.5039 30.0754L20.499 30.0725ZM20.5059 33.6389L20.4951 33.6457C20.5026 33.6457 20.5101 33.6457 20.5176 33.6457L20.5059 33.6389Z" fill="#4CAF4F" stroke="#4CAF4F" stroke-width="1.33333"/>
<path d="M28.8804 27.2437V27.2515L28.8862 27.2554C28.8841 27.2516 28.8824 27.2475 28.8804 27.2437ZM29.4419 27.8472C29.4465 27.8505 29.4515 27.8536 29.4565 27.857C29.4516 27.8539 29.4468 27.8504 29.4419 27.8472ZM27.1968 30.0757L27.1841 30.0689L27.1724 30.0757C27.1805 30.0757 27.1886 30.0756 27.1968 30.0757ZM27.1948 33.6451L27.1841 33.6392L27.1733 33.6451C27.1805 33.645 27.1877 33.645 27.1948 33.6451Z" fill="#4CAF4F" stroke="#4CAF4F" stroke-width="1.33333"/>
</svg>
